P2
2 2 255
10 5
4  7
