P2
4 3 255
1 5  0 8
0 7 10 5
6 2 4  7 
