P2
4 4  255
19  167 144 69
229 13  53  54 
226 234 4   223 
226 48  125 115
