P2
10 10  255
200 44  133 98  23  134 178 224 242 189 
189 96  8   32  41  169 208 164 87  175 
251 137 31  53  212 0   125 233 104 101 
131 49  17  10  19  167 144 69  136 3 
3   197 227 138 229 13  53  54  177 12 
101 173 149 132 226 234 4   223 212 108 
69  89  29  213 226 48  125 115 117 133 
245 248 75  217 3   176 102 56  102 152 
196 203 70  90  207 169 196 211 137 154 
191 79  115 220 164 86  140 162 73  130 
