P2
88 97 255
62 39 25 12 13 15 13 15 17 19 15 16 14 16 12 14 14 25 38 45 53 66 92 139 156 111 81 94 69 48 104 93 110 142 151 112 78 59 62 80 72 74 58 14 44 38 26 29 32 39 55 23 18 21 13 22 19 27 38 33 22 16 40 51 38 52 55 58 53 48 32 14 9 21 39 40 44 52 57 143 185 156 128 104 132 41 49 69 
25 16 14 16 16 18 18 19 21 22 21 20 19 19 14 16 14 16 15 17 18 25 31 50 78 113 83 91 67 50 103 93 108 141 153 119 98 80 68 80 74 77 60 13 44 39 26 29 31 37 59 25 18 21 13 20 17 28 35 28 19 15 35 39 29 40 43 42 39 34 21 12 9 18 31 34 36 39 45 140 183 159 120 89 147 70 56 66 
22 16 15 26 21 24 24 25 22 18 19 19 20 23 20 19 15 18 15 11 12 14 17 18 25 81 101 89 64 47 102 93 105 137 148 115 100 86 72 80 77 78 59 15 52 42 28 28 32 40 59 21 18 20 14 21 18 29 37 28 20 15 33 37 27 37 38 38 35 30 16 11 10 20 29 30 32 36 43 146 182 158 105 66 141 64 61 99 
19 17 12 17 23 29 23 17 15 11 10 12 13 18 17 21 16 15 13 10 10 12 13 15 15 78 103 88 63 49 103 93 101 131 141 111 104 101 97 110 114 115 77 20 62 52 33 28 32 38 57 24 19 21 14 22 19 30 38 30 20 15 33 37 31 35 38 37 35 28 17 12 9 19 29 30 33 33 45 149 178 157 136 126 160 135 87 153 
10 12 11 15 25 31 23 13 11 11 12 13 12 14 17 23 17 16 11 11 13 11 14 15 16 87 115 89 66 51 101 92 98 129 149 152 165 174 177 183 183 183 175 146 108 82 49 35 32 45 65 24 18 21 14 22 21 29 40 28 20 15 32 39 31 35 38 39 34 29 16 11 9 18 27 31 33 35 43 142 175 157 160 162 161 160 156 163 
12 18 15 18 24 32 28 22 19 21 20 20 17 19 19 22 17 16 11 18 51 7 22 19 16 65 125 87 70 54 111 124 148 164 166 176 183 187 186 188 191 192 191 190 184 171 135 83 66 87 106 99 12 26 16 26 23 33 42 33 23 17 32 39 30 34 37 38 35 27 15 10 11 19 27 31 32 34 41 117 157 141 150 155 152 155 156 158 
15 21 18 24 18 35 27 28 26 27 26 27 25 27 27 25 18 14 12 13 19 13 19 25 16 39 117 94 104 129 167 165 166 171 171 176 172 174 171 173 174 175 174 175 171 168 160 149 130 118 102 112 86 63 98 115 129 138 130 119 106 85 62 41 33 35 36 37 34 26 14 11 22 31 28 28 26 29 29 49 62 62 66 71 70 76 77 80 
15 16 48 45 13 35 28 27 29 27 26 28 27 26 25 27 18 15 12 10 11 14 20 30 20 55 145 154 164 168 169 172 171 172 166 163 162 162 161 164 162 162 160 160 157 156 152 151 149 152 149 149 144 146 153 159 168 176 174 175 168 164 153 114 50 32 40 35 33 26 13 14 34 74 87 22 54 48 47 55 50 61 55 50 47 49 56 59 
12 20 87 40 17 32 29 26 25 25 22 23 23 23 23 25 18 14 12 11 9 14 21 41 111 167 164 170 170 172 174 182 194 200 198 200 200 201 201 202 201 201 200 199 197 197 192 183 165 162 158 157 146 147 148 153 155 160 163 173 175 171 164 162 142 88 39 39 37 29 13 13 35 103 117 16 70 59 61 74 72 91 73 70 61 65 139 108 
13 18 42 36 10 25 20 14 14 13 13 13 13 16 17 21 16 14 10 12 11 14 42 144 167 167 170 173 174 183 195 207 209 210 204 204 203 205 203 204 203 204 203 205 202 201 200 198 183 176 180 186 185 178 168 162 156 153 151 154 156 162 163 163 162 157 129 67 40 47 19 13 34 91 109 14 63 52 58 72 67 75 71 84 162 95 160 130 
16 35 64 48 11 25 16 13 12 16 14 18 31 27 19 22 18 16 9 13 10 52 161 165 168 172 173 179 191 206 210 213 212 213 209 206 204 204 204 205 203 203 203 205 204 204 203 202 189 177 182 187 186 187 185 184 181 175 163 154 148 148 147 151 152 156 157 145 98 60 37 9 34 79 91 33 85 33 51 60 77 56 53 75 168 86 135 113 
32 81 62 61 13 23 16 15 12 14 15 28 73 78 18 22 16 17 10 14 78 174 160 174 173 175 188 203 208 211 212 212 212 215 214 211 207 206 206 206 205 205 205 205 205 206 206 207 200 186 185 196 194 196 194 195 190 181 172 170 165 157 148 146 146 147 144 147 133 102 41 9 34 75 79 50 91 24 44 81 125 54 97 62 171 116 88 97 
59 92 74 68 15 22 17 15 9 11 10 20 108 123 10 22 17 16 14 105 179 166 174 176 181 200 207 210 211 213 214 215 213 214 215 214 207 207 206 208 206 208 207 208 208 211 214 219 221 220 214 219 223 224 225 225 215 189 173 173 171 170 167 159 148 144 139 130 125 126 86 18 27 73 72 51 87 21 41 81 118 45 129 51 118 87 78 81 
88 96 107 123 13 26 14 14 8 10 10 19 100 112 12 22 18 25 106 185 167 176 177 191 203 208 211 213 213 215 215 215 213 215 217 219 214 211 208 208 208 209 208 211 216 222 225 226 227 228 230 235 238 241 243 244 243 228 180 174 173 175 170 170 167 160 138 121 118 126 118 90 36 68 70 56 89 39 63 66 97 46 104 48 87 69 74 82 
126 125 176 122 7 22 18 12 9 11 9 19 96 90 17 19 17 74 184 159 175 182 198 205 205 210 213 214 215 217 215 217 215 216 216 221 226 226 225 224 223 223 223 227 229 229 228 229 229 229 230 233 237 240 242 243 243 243 223 177 176 175 173 173 171 171 165 142 111 121 122 118 94 65 62 56 77 72 88 45 98 38 79 53 90 59 66 83 
130 189 151 106 13 21 18 14 9 11 10 17 83 118 20 20 33 159 167 172 191 202 202 206 209 213 215 216 216 218 216 215 215 216 218 227 234 237 240 240 240 240 237 233 232 232 231 231 229 229 229 230 233 236 239 241 242 243 243 221 178 175 174 175 173 172 170 169 147 112 117 122 115 103 53 54 73 53 71 44 83 36 83 50 75 67 73 83 
103 137 94 76 11 21 17 14 9 11 10 15 22 30 19 21 103 191 173 199 201 202 206 210 212 215 215 218 218 218 217 217 216 220 227 234 237 240 241 241 242 242 241 236 234 234 233 232 231 230 230 230 230 232 235 238 240 243 243 243 220 178 174 175 175 175 172 170 166 153 114 117 119 115 97 65 55 57 70 37 74 38 64 52 72 79 81 89 
73 89 78 62 16 20 18 15 9 11 11 13 12 15 18 59 189 191 199 198 201 207 209 211 214 216 217 218 219 219 218 219 221 228 236 238 240 238 238 239 239 239 240 238 236 234 234 232 231 230 229 231 231 231 232 234 237 240 242 243 243 222 175 176 173 174 175 172 168 167 155 121 109 120 112 102 60 52 68 36 58 40 75 67 79 84 88 92 
78 81 82 65 13 23 17 22 31 28 27 32 40 42 53 185 198 201 198 203 206 210 212 215 215 218 217 217 217 219 219 224 231 236 240 240 236 233 234 236 235 236 237 237 236 235 234 233 231 231 230 231 232 232 232 232 233 236 240 242 243 243 219 178 173 174 173 176 172 169 165 158 127 108 116 109 90 35 38 51 71 47 83 74 86 88 91 97 
44 44 44 39 15 21 18 23 39 36 36 38 38 60 174 205 195 198 203 206 208 211 212 214 213 213 213 214 214 220 226 232 238 239 239 236 226 229 233 235 236 236 236 236 236 236 235 235 233 232 231 232 232 234 233 233 233 234 236 240 242 243 240 218 191 179 175 175 173 173 171 167 160 138 104 110 103 67 23 49 71 64 81 82 87 91 94 98 
17 19 17 19 19 21 18 17 17 20 18 19 28 151 210 190 199 203 203 206 206 208 209 208 208 208 209 215 222 230 235 238 239 240 235 227 224 229 232 234 234 234 234 235 235 234 234 234 233 233 232 232 233 233 233 233 233 233 232 233 236 240 237 224 220 211 193 182 173 175 172 173 170 161 139 102 101 93 37 57 83 74 85 90 91 97 96 101 
12 12 12 15 17 22 17 17 18 36 39 46 134 204 190 199 198 200 202 205 208 210 211 214 214 217 218 225 231 237 238 240 240 234 225 223 223 228 231 231 232 232 233 234 234 234 234 234 233 232 232 232 233 233 233 233 233 233 232 231 230 228 223 220 220 220 217 212 195 181 174 174 170 170 157 115 90 95 74 67 81 85 88 93 96 99 100 104 
12 12 12 15 17 22 17 17 35 96 99 163 190 194 198 202 206 210 212 215 215 216 216 216 217 218 221 227 234 238 238 239 231 224 221 222 223 227 229 230 230 231 232 233 233 233 232 233 232 231 232 232 233 232 233 233 233 232 231 231 225 203 200 218 217 218 219 218 216 212 196 182 175 168 128 80 68 78 78 81 84 90 93 98 98 102 101 105 
11 13 12 14 17 22 19 18 46 145 181 194 199 208 211 214 213 216 215 216 215 217 216 216 217 219 222 230 236 238 236 229 223 222 221 221 222 227 230 229 230 230 230 230 230 230 231 232 231 232 232 233 232 233 233 233 232 232 231 230 221 188 184 209 217 218 217 218 217 216 213 210 191 145 69 69 70 84 80 86 89 94 97 99 101 103 102 106 
12 13 12 14 18 23 18 19 83 212 202 214 212 217 217 218 216 218 216 217 216 216 215 217 218 220 225 233 238 236 228 222 219 221 220 220 221 228 230 229 229 229 229 229 229 230 230 230 229 230 231 232 232 232 232 233 232 232 231 230 215 180 179 193 211 218 218 218 216 216 215 213 206 134 59 79 75 89 87 92 93 98 100 100 100 104 103 107 
12 14 12 15 18 24 18 28 157 221 212 214 216 218 218 216 216 217 217 217 215 215 215 218 219 224 228 235 233 226 221 218 218 220 219 220 223 230 231 230 230 229 228 229 228 229 229 229 229 229 229 230 231 231 231 231 231 231 230 229 209 170 178 181 196 213 215 218 217 217 214 212 207 157 66 91 79 85 91 95 98 100 100 102 102 105 104 108 
18 19 19 21 19 23 18 46 197 214 211 213 216 217 216 217 217 218 217 218 216 216 218 219 220 224 228 228 221 219 217 219 218 219 219 220 224 231 232 231 230 230 230 230 230 230 230 229 229 229 229 229 229 230 230 230 230 230 229 227 199 167 175 177 184 202 213 218 218 217 214 212 208 193 113 81 95 89 88 97 100 101 101 105 104 107 106 107 
61 62 61 57 20 22 18 64 211 209 212 210 214 216 216 217 217 216 215 216 214 215 216 218 219 220 220 218 216 217 217 218 218 219 220 222 228 235 233 233 232 232 232 232 231 231 230 230 229 228 228 228 228 229 229 229 229 229 227 223 187 165 171 175 176 186 204 217 216 217 214 213 208 204 178 102 93 100 96 94 94 103 104 105 104 108 108 110 
76 76 74 66 18 21 18 107 224 202 212 211 213 216 215 217 217 216 216 216 212 213 213 213 213 214 213 215 215 217 218 219 220 221 222 224 229 236 234 236 234 234 233 233 232 232 231 230 229 230 229 228 228 229 229 229 229 228 225 218 173 163 165 169 171 175 188 209 216 216 213 212 209 205 196 149 96 109 102 102 101 98 100 106 107 110 110 112 
77 78 76 71 21 20 23 151 223 203 210 214 212 214 215 217 216 215 210 207 205 206 207 210 211 214 214 216 218 219 220 220 220 221 220 223 231 236 235 236 236 236 235 235 234 234 233 232 231 231 230 231 230 230 230 230 229 229 227 214 163 161 160 165 165 169 175 193 211 216 214 213 209 206 200 176 102 115 114 112 105 106 103 101 101 107 110 113 
77 78 78 70 19 19 42 193 213 208 207 213 213 214 215 217 216 212 198 193 203 203 205 210 212 215 216 219 219 219 218 218 218 220 221 228 235 238 238 237 236 238 237 237 236 236 235 235 234 233 233 232 232 232 231 230 230 230 227 207 155 159 156 158 160 164 168 178 196 214 213 213 209 206 201 191 118 105 110 114 116 115 110 109 107 105 104 109 
79 80 82 78 22 18 77 217 204 212 207 212 213 214 213 215 213 211 184 187 207 203 207 212 213 216 216 217 216 216 217 219 219 224 229 234 238 239 240 240 239 237 237 237 236 236 236 235 234 234 234 234 234 234 233 232 232 231 227 202 151 158 152 154 154 157 161 167 179 204 211 210 207 207 201 198 146 100 111 103 99 113 114 116 113 112 108 106 
82 84 87 82 20 21 125 225 197 211 209 211 212 213 212 215 213 209 175 185 207 205 210 215 214 216 215 217 216 218 219 222 226 231 232 231 230 232 234 238 239 240 238 236 236 236 236 236 236 236 236 236 236 236 235 235 233 232 229 193 150 159 152 150 151 152 154 160 166 186 204 208 206 206 202 199 172 106 108 100 95 99 56 70 125 124 114 115 
92 93 100 87 13 34 169 218 199 208 210 210 211 213 212 215 214 207 166 185 209 210 211 214 214 216 216 216 218 222 226 230 231 230 228 228 228 228 229 231 234 238 239 237 237 237 237 236 236 236 236 236 236 236 236 236 235 235 230 188 154 161 153 152 148 148 149 154 159 170 188 205 204 203 200 197 184 126 100 103 95 92 36 25 83 96 111 127 
98 101 102 81 14 54 203 206 205 206 210 213 212 214 214 215 215 205 163 183 212 210 211 215 215 217 218 222 225 229 232 231 230 230 229 228 227 227 227 227 227 231 234 237 236 236 235 234 234 235 235 236 237 237 237 237 237 236 230 191 160 163 159 153 150 148 146 150 153 161 170 189 202 201 198 196 189 152 96 106 93 85 42 43 55 63 64 76 
89 92 87 53 14 97 221 195 208 208 209 212 212 212 214 216 215 197 158 182 211 212 213 217 218 221 225 229 230 231 230 230 230 230 229 230 228 227 227 227 226 227 229 230 233 233 232 233 233 233 233 233 234 233 231 228 221 219 213 202 173 166 161 158 152 149 145 148 149 154 159 171 194 198 194 194 189 170 114 108 98 107 145 136 139 141 136 138 
71 72 70 59 22 141 220 196 208 211 208 213 213 214 215 216 214 191 158 182 211 214 216 219 224 226 228 228 228 230 230 234 234 234 234 232 230 230 229 228 229 229 230 228 228 231 229 230 230 231 225 195 210 200 202 203 203 204 203 205 194 175 165 161 156 152 148 149 149 152 152 155 173 192 189 191 185 179 153 129 115 115 140 150 150 149 145 150 
73 72 73 67 42 183 209 204 204 210 209 212 212 215 215 218 214 184 157 182 208 217 221 224 225 226 225 226 227 229 233 237 239 240 241 239 237 235 233 233 231 231 231 227 225 228 226 227 227 228 212 144 204 190 201 200 201 204 203 206 205 195 171 164 158 156 150 150 150 152 150 147 155 176 187 186 181 180 175 170 140 115 106 145 148 143 145 149 
68 65 70 72 77 207 200 210 204 210 210 212 213 216 216 217 214 177 161 181 209 222 221 222 222 223 222 223 226 229 230 232 235 237 237 238 239 240 238 237 236 236 231 222 224 223 220 222 223 225 199 111 195 190 195 195 198 202 202 206 205 205 188 167 159 157 152 152 150 153 150 146 145 153 176 183 177 175 175 179 167 111 86 116 152 139 153 157 
74 75 74 73 117 220 197 210 207 209 212 213 213 216 216 218 213 173 162 183 212 219 217 219 220 221 221 222 223 222 221 226 231 234 235 237 238 240 241 241 241 239 226 218 222 219 218 218 220 221 178 95 164 200 184 197 197 203 205 207 205 206 200 184 159 155 152 152 150 154 149 145 142 133 152 185 174 174 175 178 173 112 75 100 142 149 163 153 
82 83 83 83 160 220 199 209 209 209 211 213 214 215 216 219 210 167 165 188 216 218 219 219 219 220 221 220 220 224 226 228 232 235 237 238 238 240 243 244 244 236 219 216 222 217 216 216 217 217 159 93 130 197 182 197 197 206 206 207 205 204 201 194 174 154 149 150 149 150 149 146 136 115 132 193 167 177 175 176 172 114 67 95 122 165 134 150 
86 88 88 99 192 215 204 207 209 210 211 213 214 216 216 219 206 163 168 196 219 219 220 221 222 225 225 225 225 226 227 229 234 236 237 239 240 242 244 245 244 228 213 216 221 216 216 216 216 215 142 100 108 175 199 200 210 219 219 214 208 205 200 194 185 168 148 149 147 149 147 145 131 100 125 199 167 178 175 173 172 117 64 90 103 110 70 177 
86 89 87 123 212 207 208 207 209 211 210 214 215 217 217 220 198 160 175 209 222 224 226 229 229 230 228 228 227 227 227 230 234 236 238 239 241 244 245 246 237 218 210 217 219 216 216 216 216 215 127 106 100 148 220 226 232 236 238 229 218 206 195 192 188 182 158 145 145 145 146 144 121 87 122 202 169 181 174 174 170 119 60 87 89 98 78 180 
80 83 85 154 220 201 208 209 208 212 212 214 215 217 216 218 192 158 187 223 232 233 236 238 238 237 234 231 229 229 228 231 237 239 239 241 243 245 246 245 226 214 208 219 217 216 216 217 216 209 117 110 94 142 225 227 230 230 230 227 212 168 175 191 186 186 175 155 142 144 142 139 106 79 117 202 171 183 174 174 169 122 54 85 80 112 105 172 
64 66 77 185 214 203 205 209 209 212 213 216 216 219 219 217 184 158 193 227 236 236 238 239 241 242 239 234 232 231 231 233 238 240 241 243 245 246 246 239 217 209 210 222 217 219 216 218 218 207 108 112 91 123 214 228 226 231 233 232 193 152 148 188 182 186 180 175 153 141 138 133 91 81 110 203 173 183 173 174 171 127 54 82 75 97 102 143 
106 105 117 206 208 208 206 209 210 213 214 217 217 218 219 215 175 162 184 219 228 230 233 234 235 237 238 237 235 233 233 235 239 241 243 244 245 246 244 226 212 205 210 224 218 219 219 219 219 206 102 115 94 116 203 232 227 234 236 229 159 165 140 170 183 182 180 182 171 154 137 122 79 86 100 199 178 183 172 175 172 134 55 78 74 72 79 87 
112 110 141 217 204 209 206 209 210 212 214 217 217 220 219 213 168 164 181 215 225 226 229 230 231 233 234 235 236 236 236 237 240 242 244 244 244 244 234 216 206 203 213 225 219 221 221 221 220 203 98 117 101 110 186 231 225 234 236 215 138 166 165 144 188 180 182 184 181 175 145 106 77 88 95 191 183 181 172 176 173 140 57 76 71 68 77 139 
106 106 164 220 203 208 206 208 210 213 216 218 218 220 219 206 162 166 178 211 222 224 226 227 228 230 231 231 231 232 234 236 237 237 238 239 239 237 220 208 202 202 217 226 220 224 224 223 222 199 94 123 108 109 171 231 227 233 234 192 134 159 177 143 174 189 184 187 186 183 161 92 80 89 96 189 184 181 175 177 175 145 56 77 68 70 89 166 
99 107 184 218 205 209 209 211 212 214 217 220 220 220 218 199 160 167 180 213 215 219 222 226 227 228 228 228 228 229 229 229 230 231 232 234 235 229 210 206 198 203 221 225 224 225 225 224 223 194 91 129 115 121 160 229 230 234 232 168 142 149 168 170 161 198 185 193 188 184 170 98 79 93 97 179 186 182 177 182 176 146 55 77 67 69 87 169 
78 94 188 215 206 209 209 211 212 214 217 220 221 221 219 197 159 166 175 211 213 216 218 223 225 226 225 224 225 226 226 226 227 228 229 230 231 219 203 202 196 204 224 226 225 225 225 225 224 189 91 133 115 126 159 223 232 234 225 156 151 149 160 178 171 193 195 193 186 187 175 108 77 99 97 168 189 179 179 184 177 147 59 76 68 65 40 68 
74 92 171 213 207 212 211 211 211 213 215 218 220 222 220 194 158 166 174 208 213 214 215 219 221 225 225 224 225 225 224 225 225 226 226 228 228 212 200 200 195 207 226 225 225 225 225 225 224 179 92 134 116 123 165 217 215 230 215 150 162 155 162 176 187 189 201 196 190 188 181 117 80 104 104 173 191 176 175 180 175 141 66 76 69 75 94 95 
75 95 147 204 211 210 209 211 211 214 214 218 219 223 219 183 157 165 175 209 212 214 214 215 217 220 224 225 224 225 225 226 226 230 233 237 235 204 199 196 193 215 231 225 225 224 225 225 224 163 94 135 118 125 176 211 197 210 200 166 175 175 178 186 190 195 200 203 196 190 185 125 80 109 112 187 194 183 178 180 168 129 72 78 69 85 157 142 
75 94 129 187 213 210 212 212 211 213 215 217 220 222 216 174 159 164 173 209 211 213 213 216 216 218 221 223 226 229 232 236 237 239 240 242 227 198 197 194 199 226 234 233 229 227 227 227 223 144 100 133 122 131 195 203 196 197 190 181 184 184 182 183 184 189 191 196 195 196 195 134 77 113 122 202 195 192 177 175 168 123 76 81 71 88 164 145 
74 88 118 167 214 210 213 213 211 214 214 218 220 222 212 166 161 162 174 209 210 212 212 215 214 217 219 221 225 233 238 240 241 241 243 242 208 198 197 196 198 223 232 231 233 233 233 234 224 131 106 130 122 143 208 193 198 194 192 189 185 184 181 181 178 184 184 184 182 182 174 119 83 111 132 209 194 198 185 174 168 118 76 83 72 93 171 142 
60 68 111 141 206 213 213 215 214 214 215 219 221 221 207 162 162 160 173 209 210 211 212 214 215 216 217 219 225 234 238 240 242 242 243 236 199 200 196 197 196 222 228 226 228 228 228 228 204 120 113 126 124 161 220 192 197 195 194 196 191 192 187 184 180 180 180 179 174 171 140 82 94 101 135 211 189 200 191 183 165 114 77 84 73 98 177 137 
20 23 93 136 180 216 212 214 215 215 216 218 221 222 206 159 161 158 171 208 211 212 213 214 213 215 215 218 225 234 239 240 242 242 243 228 197 205 199 196 193 212 224 224 226 225 226 222 162 119 116 127 122 168 228 203 200 191 193 196 194 192 189 186 181 179 176 170 159 147 104 75 95 98 127 209 186 198 190 188 172 115 79 84 74 100 173 135 
12 11 57 141 149 218 209 214 215 215 215 218 220 221 203 158 160 160 170 207 211 212 212 214 213 216 217 219 224 234 239 241 243 243 243 228 199 206 194 187 178 180 190 201 207 214 218 190 131 130 118 128 124 171 228 225 220 196 192 196 193 191 187 182 174 171 161 154 145 129 84 79 89 93 115 202 186 194 187 187 177 114 77 85 76 100 169 132 
11 13 29 131 135 206 211 215 214 216 214 217 218 219 199 157 159 160 169 208 211 212 211 213 213 215 215 218 225 235 239 241 243 243 244 229 201 201 191 187 181 175 172 171 169 173 174 152 130 132 124 128 127 194 232 229 233 223 196 189 183 179 172 169 164 164 158 154 145 118 78 84 86 90 109 195 185 189 181 184 171 103 78 81 76 83 108 95 
11 12 12 102 140 179 216 213 213 216 215 217 217 216 193 157 159 161 168 207 210 211 210 214 213 216 216 218 225 234 239 241 242 244 244 235 211 212 203 199 192 187 182 178 172 167 156 149 141 138 131 126 149 222 232 232 234 232 193 173 173 170 167 167 165 165 160 157 146 107 78 87 83 86 105 193 180 185 177 179 161 92 86 81 73 55 55 51 
11 13 9 65 144 154 215 208 210 212 212 215 215 214 189 157 160 162 167 207 210 211 211 213 213 214 216 218 226 235 240 241 243 244 245 245 238 237 234 232 228 227 222 213 199 182 164 158 154 147 133 128 187 232 230 235 234 228 178 170 169 171 168 168 166 164 161 158 141 94 84 86 83 86 106 195 174 180 173 173 144 78 88 78 55 20 31 29 
11 12 10 34 134 137 195 188 196 201 204 208 209 210 181 154 158 160 168 204 211 212 210 213 213 215 216 219 225 235 239 241 243 244 244 246 245 245 245 245 245 245 246 247 246 227 192 181 171 163 132 163 227 234 235 236 236 219 164 172 168 172 167 166 163 163 160 159 129 87 92 90 85 87 109 193 168 177 169 167 128 70 88 72 28 26 28 30 
12 12 11 15 101 142 155 170 171 173 178 182 184 190 172 153 158 160 163 203 211 211 210 214 213 215 216 218 224 234 239 241 243 244 245 243 241 242 241 241 241 242 243 244 244 228 205 201 189 177 177 226 234 237 239 238 235 201 163 172 169 170 166 165 162 163 160 155 116 89 95 92 88 92 112 195 167 175 166 160 111 65 84 68 21 30 26 30 
11 13 11 13 66 145 143 173 165 166 166 167 168 173 162 153 156 156 162 203 211 211 210 213 213 215 216 218 223 233 239 241 243 243 241 238 237 236 237 237 238 241 242 242 242 219 192 191 185 194 221 234 237 238 239 239 232 185 166 169 168 169 165 163 161 163 161 148 97 98 96 97 92 96 121 196 166 175 164 151 91 68 81 75 27 28 28 30 
12 19 24 23 38 137 140 175 163 171 172 170 169 172 159 152 155 154 159 203 211 211 212 213 213 215 216 218 221 232 238 240 242 241 236 235 234 235 235 236 237 239 241 241 238 219 186 188 180 186 213 233 236 239 239 238 221 171 170 168 168 169 166 164 163 165 158 130 89 101 96 98 99 100 128 202 166 174 162 143 75 71 76 74 34 24 29 30 
15 37 49 47 27 94 153 163 165 173 170 177 175 174 158 152 155 153 160 200 213 211 211 212 212 214 216 217 222 232 238 240 241 237 235 234 234 233 234 232 233 236 239 240 237 212 185 184 180 183 197 227 235 236 237 235 207 168 170 167 167 168 165 163 164 165 152 108 94 99 98 100 105 105 139 202 165 174 162 134 65 76 71 70 31 25 28 29 
14 39 56 51 28 51 151 158 168 171 174 182 188 185 154 155 153 154 160 201 213 211 210 212 212 216 216 218 223 232 237 238 233 229 227 226 225 226 225 225 223 224 222 220 216 211 198 185 180 179 185 217 233 236 237 234 189 169 169 169 166 169 164 166 163 164 141 93 99 100 99 104 108 110 148 202 167 175 162 119 63 79 68 63 26 28 27 29 
12 37 59 53 31 21 101 165 163 169 177 193 198 188 151 153 153 155 160 197 212 210 210 211 212 215 216 219 225 233 237 238 235 228 227 228 229 229 230 230 229 225 219 214 206 205 201 198 184 177 176 202 229 235 236 229 177 172 168 169 165 167 164 165 163 161 122 90 101 98 99 106 110 113 157 202 170 177 161 108 69 78 69 49 21 30 26 30 
14 44 58 54 31 16 36 117 173 168 187 197 193 185 152 153 154 157 162 194 214 210 210 212 212 215 216 219 227 235 238 239 240 241 240 241 241 241 242 243 242 238 230 225 215 208 202 200 195 186 175 188 221 234 234 218 168 172 166 169 167 167 164 164 163 154 102 96 98 100 99 107 111 116 167 199 175 176 156 94 75 77 67 36 25 31 27 28 
16 46 59 57 34 16 25 24 71 151 186 189 190 184 151 152 158 160 161 194 213 210 210 213 212 214 216 222 230 236 238 240 241 240 235 235 234 234 236 239 241 242 243 241 237 230 203 200 194 196 185 177 205 231 235 206 166 170 167 168 166 167 165 164 163 139 94 100 98 99 102 110 114 117 172 193 177 175 149 85 82 78 61 23 28 28 27 28 
17 48 62 58 34 16 26 18 19 30 98 178 183 179 151 151 158 159 160 194 212 210 210 212 213 214 216 223 233 237 238 241 241 235 231 230 230 234 236 237 237 238 239 239 238 227 193 207 200 196 193 183 188 226 230 193 166 171 168 168 170 167 166 166 159 121 91 102 97 99 104 112 115 117 179 191 180 171 135 80 87 76 45 22 30 27 26 28 
17 47 61 59 37 16 24 18 18 23 26 60 137 182 145 151 157 157 160 194 212 209 210 212 212 216 218 228 236 238 240 241 238 233 229 229 231 232 231 231 231 233 234 235 233 216 180 195 199 201 197 197 195 219 227 179 168 174 168 171 168 167 166 166 153 103 96 99 97 101 107 114 114 120 185 190 181 169 113 86 87 73 29 26 29 29 26 29 
17 46 59 55 35 17 26 17 17 21 22 29 29 91 156 147 154 156 158 189 210 210 209 212 212 214 220 231 237 238 240 239 233 231 229 231 229 226 225 223 222 222 222 223 224 216 180 180 186 196 204 210 216 228 228 178 168 171 170 168 167 167 165 166 135 91 101 97 98 102 108 116 115 127 190 192 185 145 87 96 84 60 21 30 26 31 28 28 
16 42 53 47 27 18 24 17 17 21 20 28 21 21 96 171 143 157 159 182 202 208 209 213 212 216 224 235 238 240 239 235 230 231 235 234 232 231 230 230 229 228 227 225 223 220 192 169 176 184 192 217 233 237 232 179 169 173 168 169 167 168 165 160 116 94 100 99 97 104 111 120 116 141 211 199 170 92 95 93 72 27 27 29 30 29 28 29 
20 32 34 33 23 18 24 17 22 21 20 27 20 16 48 159 148 154 156 184 192 202 207 213 213 217 227 236 238 239 235 230 228 233 237 238 239 239 239 238 237 236 234 233 230 228 215 173 169 181 186 211 231 236 230 175 170 173 168 169 168 168 163 149 96 100 96 100 98 107 116 120 119 170 217 172 100 93 92 76 32 29 29 30 28 29 27 29 
19 26 27 29 20 19 23 16 15 20 20 26 18 18 25 100 169 145 164 182 183 192 196 209 214 220 229 238 238 234 231 228 227 232 234 235 237 239 240 243 243 244 243 242 238 235 229 204 164 182 186 204 228 237 229 175 171 170 169 170 168 169 164 132 91 103 97 97 100 111 118 119 129 199 180 102 90 91 57 29 29 29 27 30 29 29 28 31 
20 21 22 29 24 20 24 17 16 20 20 25 18 19 41 44 153 149 167 178 182 187 188 198 208 221 231 236 233 230 227 226 225 229 232 232 234 236 237 238 239 241 243 243 242 242 242 233 181 181 186 196 220 234 225 172 173 171 169 170 168 168 158 113 93 103 98 99 101 116 118 119 149 190 99 94 76 40 29 31 30 31 30 30 29 30 30 30 
19 28 27 29 21 20 23 17 38 34 15 27 19 19 58 27 92 166 159 179 182 184 187 192 200 217 231 233 229 227 225 224 224 228 232 231 232 232 234 235 236 237 238 239 240 240 238 235 192 180 185 191 211 232 220 171 174 170 170 170 169 168 144 95 101 99 100 98 106 121 118 123 141 118 85 57 30 29 29 29 29 32 28 30 28 31 29 30 
14 34 28 19 18 20 24 17 31 28 15 27 19 19 52 27 43 151 163 181 178 185 185 188 192 206 223 227 224 224 223 223 225 229 234 234 232 232 233 233 233 234 235 235 235 234 232 213 183 184 181 184 204 228 215 170 173 171 170 170 169 162 122 93 103 100 98 98 113 123 117 112 100 73 38 29 30 30 29 32 29 30 29 31 27 29 29 28 
20 28 15 13 16 20 25 16 18 19 20 25 19 19 43 24 29 114 169 179 178 185 183 187 191 194 206 217 221 221 221 222 227 234 236 237 237 237 237 237 236 236 234 234 233 232 222 189 183 183 180 182 198 225 210 168 172 173 166 167 163 147 102 99 101 100 95 103 119 120 110 88 51 30 28 30 30 30 29 30 29 30 29 30 29 30 29 30 
19 22 10 16 19 20 24 16 23 24 19 27 19 17 23 22 23 75 159 176 179 183 182 188 190 193 194 202 210 216 219 225 231 234 234 234 234 234 235 236 236 237 237 236 236 231 201 183 182 182 176 179 191 218 202 163 167 165 158 157 156 135 97 103 99 99 95 106 110 102 77 53 35 30 28 31 29 30 28 31 30 30 29 30 29 29 27 29 
12 25 9 14 13 21 22 17 35 34 15 28 20 16 21 23 22 42 136 167 185 180 184 188 189 194 195 196 198 206 216 229 232 233 233 233 233 234 234 234 234 235 235 235 236 231 195 183 179 179 173 177 185 206 180 157 157 156 152 154 151 128 97 103 98 95 93 97 82 72 62 47 32 32 28 28 30 30 29 30 29 31 29 31 28 29 29 30 
12 25 10 12 12 21 24 17 45 43 11 30 21 17 42 31 18 27 106 150 188 178 185 186 188 194 194 196 196 200 208 226 231 231 232 233 233 233 233 234 235 234 234 235 234 232 203 179 175 176 173 176 175 174 159 154 151 152 151 156 154 121 95 104 97 93 92 86 73 71 60 46 32 30 29 31 30 30 29 30 27 29 27 29 28 30 29 29 
12 26 12 19 17 20 24 17 47 45 11 28 21 15 56 33 17 22 74 142 169 188 184 184 190 192 192 195 196 198 203 223 230 231 232 233 233 233 234 234 234 234 235 235 235 234 203 168 165 164 161 163 159 158 152 153 155 154 153 152 143 112 96 102 94 93 92 78 68 69 54 40 30 29 29 32 30 31 28 31 29 30 29 30 28 29 27 31 
11 20 16 100 43 17 23 19 48 46 10 29 21 16 61 32 18 20 57 140 136 194 179 187 189 190 192 194 193 195 202 222 233 234 235 235 234 234 235 236 236 236 236 236 236 232 178 150 157 159 157 160 157 157 156 157 152 151 148 148 134 106 100 101 93 101 92 70 68 67 51 39 30 29 29 30 27 30 29 31 29 29 28 30 29 29 28 30 
9 15 21 59 37 13 25 18 52 46 11 31 21 17 64 32 19 18 59 153 113 180 182 187 190 191 193 193 194 196 198 218 231 232 234 235 235 235 236 237 237 237 237 236 235 224 156 162 159 164 161 158 155 155 152 153 147 149 146 140 117 104 103 97 97 109 87 64 73 64 50 37 29 30 29 30 29 29 29 30 28 29 28 30 29 31 28 29 
22 15 28 44 29 15 24 17 48 49 9 31 20 17 63 37 17 21 74 184 99 159 178 182 191 191 191 194 192 196 198 216 228 233 233 234 234 234 235 236 236 236 236 236 234 216 152 162 155 158 156 154 155 154 150 151 148 146 140 121 104 109 103 98 102 113 90 63 71 60 48 35 28 31 27 31 29 30 28 30 28 31 29 31 28 30 27 27 
40 22 40 50 36 15 26 17 45 53 7 31 21 13 65 43 13 23 89 213 101 140 160 176 185 188 192 194 194 197 197 212 228 233 233 234 234 234 235 235 236 236 236 235 233 196 145 159 153 156 156 154 152 154 150 150 145 142 123 107 109 109 104 101 108 114 96 64 69 60 45 33 29 30 29 29 28 30 27 29 29 29 27 30 28 30 28 29 
30 54 73 78 48 12 27 18 28 34 13 29 19 16 64 43 15 24 106 224 127 129 140 149 154 168 180 187 189 193 194 205 221 229 230 232 233 233 234 234 234 235 234 234 229 170 148 156 154 156 156 156 152 152 149 148 139 122 107 111 109 110 104 104 112 114 99 65 70 58 42 31 28 30 29 30 29 31 27 30 28 29 28 28 29 30 28 30 
47 72 82 73 50 10 27 17 25 28 17 28 20 17 40 32 18 23 118 226 159 128 142 140 141 142 148 157 160 167 171 172 172 185 197 208 218 224 228 230 232 232 232 231 210 148 155 156 157 158 154 156 152 153 149 140 120 110 111 113 111 111 104 110 115 114 103 68 68 55 39 31 28 29 28 32 30 30 28 28 29 31 29 30 29 31 27 29 
47 64 78 72 47 12 25 18 24 27 16 27 22 18 31 28 19 25 128 225 181 143 139 143 146 145 143 146 148 152 154 155 151 151 152 154 156 162 169 180 189 199 205 208 181 151 156 157 156 157 154 152 151 150 138 118 110 116 114 115 111 110 106 115 115 115 105 71 66 53 38 30 28 32 29 30 29 30 30 31 29 30 28 31 28 29 29 30 
58 77 85 80 50 9 25 18 28 34 13 29 20 17 36 32 17 23 127 226 190 171 138 147 147 148 147 147 146 148 150 154 152 153 150 153 150 151 149 151 152 153 153 157 156 152 150 152 148 149 146 146 142 135 116 113 115 118 116 116 113 111 110 116 114 119 127 75 63 53 37 30 29 31 29 29 28 30 29 30 27 29 29 29 28 28 27 29 
66 67 67 67 47 9 26 17 30 40 11 30 20 16 38 34 16 26 128 227 192 195 149 149 151 151 148 152 148 149 149 155 152 154 154 155 154 154 152 154 154 155 154 154 152 141 129 132 129 130 128 128 125 121 115 118 116 118 116 115 114 114 114 122 136 159 157 80 56 54 37 28 30 30 28 30 28 30 27 30 28 29 29 29 26 29 27 29 
49 52 48 49 35 15 26 17 26 31 14 29 21 16 30 28 18 25 131 226 193 210 195 167 161 156 152 155 154 154 152 158 156 159 159 161 159 158 157 160 156 157 157 157 152 140 135 138 135 136 132 132 127 122 118 119 118 118 114 118 117 119 138 160 165 167 160 90 54 60 37 30 29 28 28 30 27 30 29 28 28 30 26 29 26 28 27 29 
15 17 14 16 16 20 25 17 14 18 19 27 21 17 14 19 23 25 140 226 194 212 212 204 195 180 162 158 158 158 159 162 162 166 164 165 164 166 166 167 164 164 161 160 149 141 144 145 144 140 139 141 128 122 121 120 119 120 119 123 138 162 169 168 165 168 163 93 55 64 41 29 30 28 28 29 26 29 27 30 28 29 28 28 26 28 25 28 
10 11 8 10 12 21 25 18 14 14 20 27 20 17 13 17 24 26 142 224 194 212 213 209 210 210 204 187 169 162 161 167 166 169 171 171 169 173 171 171 170 170 166 166 152 150 151 153 152 156 164 169 142 144 147 151 152 153 159 165 169 171 170 169 168 169 164 102 51 68 46 34 29 29 27 27 25 25 26 27 25 27 24 27 26 28 24 27 
10 11 10 12 11 19 25 19 13 17 20 26 22 17 12 17 24 25 142 224 194 214 215 211 213 213 213 214 209 190 172 178 181 179 181 180 178 181 179 179 177 177 173 171 161 163 165 174 190 209 225 219 161 167 163 166 167 170 169 172 172 173 171 171 169 169 168 105 22 54 28 24 18 17 17 19 16 16 16 17 15 18 16 17 16 17 17 16 
19 20 16 17 10 19 25 20 13 14 21 27 21 17 14 17 24 24 143 225 194 213 214 212 214 214 215 217 218 221 216 220 231 228 226 223 219 213 204 199 193 192 186 183 178 189 206 224 233 237 238 227 164 170 164 166 168 171 171 172 172 175 172 171 169 172 169 113 21 64 37 34 24 18 21 22 18 19 18 18 10 13 14 15 13 14 13 15 
