P2
2 2 255
1 5
0 7
